<svg xmlns="http://www.w3.org/2000/svg" width="31" height="28" fill="none" class="logo-icon"><g fill="#fff" clip-path="url(#a)"><path d="M29.916.05c-.957.763-1.663 1.297-3.1 1.297-1.688 0-3.351-1.271-4.712-1.271-1.361 0-2.546 1.042-3.226 2.797l-.151-.026.479-2.848h-.504l-.731 4.475s.756 0 .781-.025h.076c.605-2.238 1.26-2.67 2.772-2.67 1.235 0 2.243.915 4.31.915.605 0 1.41-.255 2.318-.788l.126.127-4.21 9.231h-4.107c-.983 0-1.436-.89-1.436-2.01h-.429c0 1.196-1.134 2.035-2.217 2.035v.458c1.058 0 2.217.89 2.217 2.009h.429c0-1.042.453-2.009 1.436-2.009h3.906l-4.31 9.307h1.89l4.21-9.307h3.78v-.483h-3.58L31 .024h-1.059l-.025.027ZM6.226 21.056h1.94L13.585.076h-1.462c-2.318 3.382-5.217 5.467-8.57 5.467-1.109 0-2.293-.228-3.502-.737L0 5.466c1.16.433 2.293.662 3.428.662 2.62 0 5.116-1.17 7.107-3.153l.302.28-4.612 17.8ZM29.678 27.816h-1.261V25.93h.925v-.107h-.925v-1.82h1.15v-.107H27.91v4.025h1.768v-.107Zm-3.808-3.812h.242c.454 0 .566.381.566.886 0 .648-.23.928-.572.928h-.236v-1.814Zm1.214 2.628c-.118-.463-.383-.69-.754-.755.495-.06.896-.393.896-1.029 0-.523-.3-.951-1.02-.951h-.843v4.025h.507v-1.998h.176c.248 0 .419.202.531.654l.295 1.344h.542l-.33-1.29Zm-2.18 1.184h-1.262V25.93h.925v-.107h-.925v-1.82h1.15v-.107h-1.656v4.025h1.768v-.107Zm-3.042-1.927v2.033h.507v-4.025h-.507v1.885H20.73v-1.885h-.506v4.025h.506V25.89h1.132ZM16.4 23.897v.107h.878v3.92h.506v-3.92h.879v-.107h-2.264Zm-.95 1.992v2.033h.507v-4.025h-.506v1.885h-1.132v-1.885h-.507v4.025h.507V25.89h1.132Zm-3.412.047v.108h.642v1.724c-.23.077-.507.125-.843.125-.985 0-1.639-.708-1.639-1.963 0-1.254.696-2.003 1.74-2.003.365 0 .748.059 1.078.225l.035-.065c-.33-.19-.754-.274-1.173-.274-1.167 0-2.252.684-2.252 2.147 0 1.373.943 2.04 2.157 2.04.501 0 .985-.114 1.403-.304v-1.76h-1.15.002Zm-3.018-2.04h-.507v4.026h.507v-4.025Zm-2.546.108h.242c.454 0 .566.381.566.886 0 .648-.23.928-.572.928h-.236v-1.814Zm1.214 2.628c-.118-.463-.384-.69-.755-.755.495-.06.896-.393.896-1.029 0-.523-.3-.951-1.02-.951h-.843v4.025h.507v-1.998h.177c.248 0 .418.202.53.654l.295 1.344h.543l-.33-1.29Zm-3.648-2.64a1.343 1.343 0 0 0-.625-.15c-.578 0-.99.37-.99.982 0 .553.288.91.719 1.332.477.464.63.714.63 1.118-.006.452-.253.6-.613.6a1.37 1.37 0 0 1-.707-.184l-.047.084c.236.148.542.207.76.207.666 0 1.026-.392 1.026-.999 0-.505-.183-.767-.72-1.308-.395-.4-.63-.684-.63-1.118 0-.381.224-.607.584-.607.206-.006.383.042.572.131l.04-.09v.002Zm-2.21-.095h-.507v4.025h.507v-4.025Z"/></g><defs><clipPath id="a"><path fill="#fff" d="M0 0h31v28H0z"/></clipPath></defs>
</svg>